<svg width="4000" height="1000" viewBox="0 0 4000 1000" fill="none" xmlns="http://www.w3.org/2000/svg">
<path d="M269.628 765.6V693.6H196.828V324H269.628V251.2H495.228V324H568.828V476H487.228V332H277.628V685.6H487.228V540H568.828V693.6H495.228V765.6H269.628ZM738.378 765.6V693.6H665.578V468.8H738.378V396H963.978V468.8H1037.58V693.6H963.978V765.6H738.378ZM746.378 685.6H955.978V476H746.378V685.6ZM1134.33 765.6V396H1432.73V468.8H1506.33V765.6H1424.73V476H1215.13V765.6H1134.33ZM1603.08 765.6V324H1675.88V251.2H1901.48V324H1975.08V404H1893.48V332H1683.88V468.8H1975.08V765.6H1893.48V548H1683.88V765.6H1603.08ZM2144.63 910.4V838.4H2071.83V758.4H2152.63V830.4H2363.03V693.6H2144.63V620.8H2071.83V468.8H2144.63V396H2371.03V468.8H2443.83V838.4H2371.03V910.4H2144.63ZM2152.63 612.8H2363.03V476H2152.63V612.8ZM2597.75 765.6V693.6H2524.95V396H2605.75V685.6H2815.35V396H2896.95V693.6H2823.35V765.6H2597.75ZM2985.89 765.6V468.8H3058.69V396H3284.29V468.8H3357.89V548H3276.29V476H3066.69V765.6H2985.89ZM3503.22 765.6V693.6H3430.42V468.8H3503.22V396H3728.82V468.8H3802.42V548H3720.82V476H3511.22V540H3656.82V620.8H3511.22V685.6H3720.82V612H3802.42V692.8H3728.82V765.6H3503.22Z" fill="#EEFFCC"/>
</svg>
